<?xml version="1.0" encoding="UTF-8"?>
<svg width="100px" height="88px" viewBox="0 0 88 88" version="1.1" xmlns="http://www.w3.org/2000/svg" xmlns:xlink="http://www.w3.org/1999/xlink">
    <!-- Generator: Sketch 45.2 (43514) - http://www.bohemiancoding.com/sketch -->
    <title>FlowEngine-logo方案-04</title>
    <desc>Created with Sketch.</desc>
    <defs></defs>
    <g id="Page-1" stroke="none" stroke-width="1" fill="none" fill-rule="evenodd">
        <g id="FlowEngine-logo方案-04" fill-rule="nonzero">
            <g id="Group">
                <path d="M54.08,76.19 C52.46,78.26 49.01,78.61 44.59,77.53 C47.33,78.08 49.37,77.81 50.35,76.57 C53.11,73.04 46.23,63.06 34.99,54.27 C23.75,45.48 12.4,41.22 9.64,44.75 C8.71,45.94 8.88,47.86 9.93,50.22 C7.97,46.35 7.56,43.07 9.13,41.06 C10.49,39.33 13.13,38.8 16.55,39.31 C23.16,40.88 30.96,44.75 38.38,50.55 C43.98,54.93 48.57,59.78 51.82,64.5 C54.98,69.43 55.98,73.75 54.08,76.19 Z" id="Shape" fill="#C4D6F8"></path>
                <path d="M57.26,57.81 C55.32,59.58 51.86,59.36 47.68,57.55 C50.29,58.55 52.35,58.62 53.52,57.56 C56.83,54.54 51.71,43.55 42.08,33.02 C32.46,22.48 21.97,16.39 18.67,19.41 C17.56,20.43 17.4,22.35 18.05,24.85 C16.76,20.71 16.91,17.4 18.79,15.69 C20.41,14.21 23.11,14.12 26.4,15.2 C32.65,17.84 39.7,22.96 46.06,29.91 C50.86,35.16 54.57,40.71 57,45.9 C59.27,51.3 59.54,55.73 57.26,57.81 Z" id="Shape" fill="#C4D6F8"></path>
                <path d="M78.23,39.03 C79.7,44.71 79.33,49.13 76.77,50.86 C74.59,52.33 71.2,51.6 67.33,49.21 C64.59,47.66 61.34,44.85 58.04,41.12 C55.94,38.79 53.86,36.14 51.9,33.23 C50.06,30.5 48.46,27.77 47.14,25.12 C44.66,20.26 43.13,15.83 42.78,12.54 C42.11,8.26 42.73,5.01 44.84,3.58 C46.66,2.35 49.34,2.66 52.44,4.2 C46.65,0.68 41.28,-0.29 37.7,2.12 C37.46,2.28 37.23,2.46 37.01,2.65 C30.74,8.07 33.64,24.05 43.82,39.13 C48.37,45.87 53.63,51.32 58.71,54.95 C58.5,56.14 58.03,57.11 57.26,57.81 C55.32,59.58 51.86,59.36 47.68,57.55 C44.74,56.42 41.12,54.11 37.31,50.9 C34.89,48.9 32.45,46.58 30.09,43.99 C27.87,41.56 25.9,39.09 24.2,36.66 C21.04,32.22 18.88,28.05 18.05,24.84 C16.76,20.7 16.91,17.39 18.79,15.68 C20.41,14.2 23.11,14.11 26.4,15.19 C20.16,12.55 14.7,12.37 11.51,15.28 C11.29,15.48 11.09,15.69 10.9,15.91 C7.09,20.32 8.54,29.23 13.98,38.8 C8.56,37.98 4.19,38.92 1.88,41.87 C1.7,42.1 1.54,42.34 1.39,42.59 C-2.91,49.68 4.78,63.99 19.11,75.19 C33.44,86.39 49.18,90.39 55.03,84.51 C55.23,84.3 55.43,84.09 55.61,83.86 C58.49,80.18 57.55,74.12 53.73,67.5 C54.88,67.25 55.92,66.82 56.82,66.18 C57.06,66.01 57.28,65.83 57.5,65.63 C59.81,63.52 60.6,60.07 60.08,55.88 C65.87,59.67 71.33,61.01 75.12,59.07 C75.38,58.94 75.63,58.79 75.87,58.63 C80.32,55.61 80.95,48.06 78.23,39.03 Z M54.08,76.19 C52.46,78.26 49.01,78.61 44.59,77.53 C41.5,76.9 37.54,75.23 33.26,72.7 C30.55,71.13 27.75,69.25 24.99,67.09 C22.4,65.06 20.04,62.95 17.96,60.84 C14.1,56.98 11.28,53.24 9.93,50.21 C7.97,46.34 7.56,43.06 9.13,41.05 C10.15,39.74 11.9,39.12 14.17,39.11 C16.45,43.06 19.41,47.11 22.96,51.01 C33.51,62.56 45.96,69.02 53.53,67.54 C55.26,71.18 55.57,74.27 54.08,76.19 Z" id="Shape" fill="#3077F2"></path>
                <path d="M76.77,50.86 C74.59,52.33 71.2,51.6 67.33,49.21 C69.76,50.58 71.79,50.95 73.11,50.07 C76.82,47.56 73.36,35.95 65.37,24.12 C57.39,12.3 47.9,4.74 44.2,7.25 C42.95,8.09 42.52,9.97 42.79,12.54 C42.12,8.26 42.74,5.01 44.85,3.58 C46.67,2.35 49.35,2.66 52.45,4.2 C58.25,7.73 64.48,13.81 69.75,21.62 C73.73,27.51 76.6,33.55 78.24,39.03 C79.7,44.71 79.33,49.13 76.77,50.86 Z" id="Shape" fill="#C4D6F8"></path>
            </g>
        </g>
    </g>
</svg>