<?xml version="1.0" encoding="UTF-8"?>
<svg width="361px" height="88px" viewBox="0 0 361 88" version="1.1" xmlns="http://www.w3.org/2000/svg" xmlns:xlink="http://www.w3.org/1999/xlink">
    <!-- Generator: Sketch 45.2 (43514) - http://www.bohemiancoding.com/sketch -->
    <title>FlowEngine-logo方案-04</title>
    <desc>Created with Sketch.</desc>
    <defs></defs>
    <g id="Page-1" stroke="none" stroke-width="1" fill="none" fill-rule="evenodd">
        <g id="FlowEngine-logo方案-04" fill-rule="nonzero">
            <g id="Group" transform="translate(110.000000, 28.000000)" fill="#333333">
                <g id="Shape">
                    <polygon points="20.4 6.94 6.05 6.94 6.05 16.48 19.92 16.48 19.92 21.83 6.05 21.83 6.05 35.65 0.45 35.65 0.45 1.59 20.4 1.59"></polygon>
                    <polygon points="25.32 35.65 25.32 0.13 30.58 0.13 30.58 35.65"></polygon>
                    <path d="M39.04,32.59 C36.56,30.11 35.29,27.09 35.29,23.49 C35.29,19.89 36.56,16.87 39.04,14.39 C41.52,11.91 44.59,10.69 48.14,10.69 C51.74,10.69 54.76,11.91 57.24,14.39 C59.72,16.87 60.99,19.89 60.99,23.49 C60.99,27.09 59.72,30.11 57.24,32.59 C54.76,35.07 51.74,36.29 48.14,36.29 C44.58,36.29 41.52,35.07 39.04,32.59 Z M48.14,31.18 C50.28,31.18 52.08,30.45 53.54,28.99 C55,27.53 55.73,25.68 55.73,23.49 C55.73,21.3 55,19.45 53.54,17.99 C52.08,16.53 50.28,15.8 48.14,15.8 C46,15.8 44.2,16.53 42.74,17.99 C41.28,19.45 40.55,21.3 40.55,23.49 C40.55,25.68 41.28,27.53 42.74,28.99 C44.2,30.45 45.99,31.18 48.14,31.18 Z"></path>
                    <polygon points="92.8 11.32 98.35 11.32 90.71 35.65 85.55 35.65 80.49 19.25 75.38 35.65 70.22 35.65 62.58 11.32 68.13 11.32 72.85 28.11 77.96 11.32 82.97 11.32 88.03 28.11"></polygon>
                </g>
                <g transform="translate(106.000000, 1.000000)" id="Shape">
                    <polygon points="3.73 31.44 20.27 31.44 20.27 34.65 0.32 34.65 0.32 0.59 20.03 0.59 20.03 3.8 3.73 3.8 3.73 15.87 18.81 15.87 18.81 19.08 3.73 19.08"></polygon>
                    <path d="M46.54,19.71 L46.54,34.65 L43.33,34.65 L43.33,19.71 C43.33,15.38 40.95,12.85 36.71,12.85 C32.04,12.85 28.83,15.72 28.83,21.9 L28.83,34.65 L25.62,34.65 L25.62,10.32 L28.83,10.32 L28.83,14.12 C30.63,11.2 33.36,9.74 37,9.74 C42.89,9.74 46.54,13.63 46.54,19.71 Z"></path>
                    <path d="M73.7,10.32 L76.91,10.32 L76.91,33.68 C76.91,37.18 75.69,39.96 73.31,41.95 C70.93,43.94 68.05,44.97 64.7,44.97 C59.01,44.97 55.16,42.98 53.17,39.03 L55.99,37.42 C57.45,40.39 60.37,41.85 64.7,41.85 C70.3,41.85 73.7,38.69 73.7,33.68 L73.7,29.88 C71.46,33.43 68.2,35.23 63.87,35.23 C60.42,35.23 57.45,34.01 54.97,31.53 C52.54,29.05 51.32,26.03 51.32,22.48 C51.32,18.93 52.54,15.91 54.97,13.43 C57.45,10.95 60.42,9.73 63.87,9.73 C68.2,9.73 71.46,11.53 73.7,15.08 L73.7,10.32 L73.7,10.32 Z M64.11,32.12 C66.79,32.12 69.07,31.2 70.92,29.35 C72.77,27.45 73.69,25.17 73.69,22.49 C73.69,19.81 72.77,17.53 70.92,15.68 C69.07,13.78 66.78,12.86 64.11,12.86 C61.44,12.86 59.15,13.78 57.3,15.68 C55.45,17.53 54.53,19.82 54.53,22.49 C54.53,25.17 55.45,27.45 57.3,29.35 C59.15,31.2 61.43,32.12 64.11,32.12 Z"></path>
                    <path d="M83.67,4.48 C82.75,3.56 82.75,2.1 83.67,1.17 C84.59,0.25 86.05,0.25 86.98,1.17 C87.9,2.09 87.9,3.55 86.98,4.48 C86.05,5.41 84.59,5.41 83.67,4.48 Z M83.72,34.65 L83.72,10.32 L86.93,10.32 L86.93,34.65 L83.72,34.65 L83.72,34.65 Z"></path>
                    <path d="M114.66,19.71 L114.66,34.65 L111.45,34.65 L111.45,19.71 C111.45,15.38 109.07,12.85 104.83,12.85 C100.16,12.85 96.95,15.72 96.95,21.9 L96.95,34.65 L93.74,34.65 L93.74,10.32 L96.95,10.32 L96.95,14.12 C98.75,11.2 101.48,9.74 105.12,9.74 C111.02,9.74 114.66,13.63 114.66,19.71 Z"></path>
                    <path d="M140.84,13.58 C143.08,16.11 144.2,19.13 144.2,22.58 C144.2,22.92 144.15,23.46 144.1,24.09 L122.74,24.09 C123.37,29 127.22,32.12 132.42,32.12 C136.12,32.12 138.89,30.47 140.25,27.98 L143.07,29.63 C140.93,33.08 137.08,35.23 132.36,35.23 C128.52,35.23 125.4,34.01 123.02,31.63 C120.64,29.25 119.42,26.18 119.42,22.48 C119.42,18.83 120.59,15.81 122.97,13.38 C125.35,10.95 128.37,9.73 132.12,9.73 C135.73,9.74 138.65,11 140.84,13.58 Z M122.74,20.98 L140.89,20.98 C140.55,18.4 139.58,16.41 137.92,14.99 C136.27,13.58 134.32,12.85 132.13,12.85 C127.08,12.85 123.38,16.16 122.74,20.98 Z"></path>
                </g>
            </g>
            <g id="Group">
                <path d="M54.08,76.19 C52.46,78.26 49.01,78.61 44.59,77.53 C47.33,78.08 49.37,77.81 50.35,76.57 C53.11,73.04 46.23,63.06 34.99,54.27 C23.75,45.48 12.4,41.22 9.64,44.75 C8.71,45.94 8.88,47.86 9.93,50.22 C7.97,46.35 7.56,43.07 9.13,41.06 C10.49,39.33 13.13,38.8 16.55,39.31 C23.16,40.88 30.96,44.75 38.38,50.55 C43.98,54.93 48.57,59.78 51.82,64.5 C54.98,69.43 55.98,73.75 54.08,76.19 Z" id="Shape" fill="#C4D6F8"></path>
                <path d="M57.26,57.81 C55.32,59.58 51.86,59.36 47.68,57.55 C50.29,58.55 52.35,58.62 53.52,57.56 C56.83,54.54 51.71,43.55 42.08,33.02 C32.46,22.48 21.97,16.39 18.67,19.41 C17.56,20.43 17.4,22.35 18.05,24.85 C16.76,20.71 16.91,17.4 18.79,15.69 C20.41,14.21 23.11,14.12 26.4,15.2 C32.65,17.84 39.7,22.96 46.06,29.91 C50.86,35.16 54.57,40.71 57,45.9 C59.27,51.3 59.54,55.73 57.26,57.81 Z" id="Shape" fill="#C4D6F8"></path>
                <path d="M78.23,39.03 C79.7,44.71 79.33,49.13 76.77,50.86 C74.59,52.33 71.2,51.6 67.33,49.21 C64.59,47.66 61.34,44.85 58.04,41.12 C55.94,38.79 53.86,36.14 51.9,33.23 C50.06,30.5 48.46,27.77 47.14,25.12 C44.66,20.26 43.13,15.83 42.78,12.54 C42.11,8.26 42.73,5.01 44.84,3.58 C46.66,2.35 49.34,2.66 52.44,4.2 C46.65,0.68 41.28,-0.29 37.7,2.12 C37.46,2.28 37.23,2.46 37.01,2.65 C30.74,8.07 33.64,24.05 43.82,39.13 C48.37,45.87 53.63,51.32 58.71,54.95 C58.5,56.14 58.03,57.11 57.26,57.81 C55.32,59.58 51.86,59.36 47.68,57.55 C44.74,56.42 41.12,54.11 37.31,50.9 C34.89,48.9 32.45,46.58 30.09,43.99 C27.87,41.56 25.9,39.09 24.2,36.66 C21.04,32.22 18.88,28.05 18.05,24.84 C16.76,20.7 16.91,17.39 18.79,15.68 C20.41,14.2 23.11,14.11 26.4,15.19 C20.16,12.55 14.7,12.37 11.51,15.28 C11.29,15.48 11.09,15.69 10.9,15.91 C7.09,20.32 8.54,29.23 13.98,38.8 C8.56,37.98 4.19,38.92 1.88,41.87 C1.7,42.1 1.54,42.34 1.39,42.59 C-2.91,49.68 4.78,63.99 19.11,75.19 C33.44,86.39 49.18,90.39 55.03,84.51 C55.23,84.3 55.43,84.09 55.61,83.86 C58.49,80.18 57.55,74.12 53.73,67.5 C54.88,67.25 55.92,66.82 56.82,66.18 C57.06,66.01 57.28,65.83 57.5,65.63 C59.81,63.52 60.6,60.07 60.08,55.88 C65.87,59.67 71.33,61.01 75.12,59.07 C75.38,58.94 75.63,58.79 75.87,58.63 C80.32,55.61 80.95,48.06 78.23,39.03 Z M54.08,76.19 C52.46,78.26 49.01,78.61 44.59,77.53 C41.5,76.9 37.54,75.23 33.26,72.7 C30.55,71.13 27.75,69.25 24.99,67.09 C22.4,65.06 20.04,62.95 17.96,60.84 C14.1,56.98 11.28,53.24 9.93,50.21 C7.97,46.34 7.56,43.06 9.13,41.05 C10.15,39.74 11.9,39.12 14.17,39.11 C16.45,43.06 19.41,47.11 22.96,51.01 C33.51,62.56 45.96,69.02 53.53,67.54 C55.26,71.18 55.57,74.27 54.08,76.19 Z" id="Shape" fill="#3077F2"></path>
                <path d="M76.77,50.86 C74.59,52.33 71.2,51.6 67.33,49.21 C69.76,50.58 71.79,50.95 73.11,50.07 C76.82,47.56 73.36,35.95 65.37,24.12 C57.39,12.3 47.9,4.74 44.2,7.25 C42.95,8.09 42.52,9.97 42.79,12.54 C42.12,8.26 42.74,5.01 44.85,3.58 C46.67,2.35 49.35,2.66 52.45,4.2 C58.25,7.73 64.48,13.81 69.75,21.62 C73.73,27.51 76.6,33.55 78.24,39.03 C79.7,44.71 79.33,49.13 76.77,50.86 Z" id="Shape" fill="#C4D6F8"></path>
            </g>
        </g>
    </g>
</svg>