<?xml version="1.0" encoding="UTF-8"?><svg xmlns="http://www.w3.org/2000/svg" viewBox="0 0 347.9 260.63"><defs><style>.f{fill:#fff;}.g{opacity:.5;}.h{opacity:.7;}</style></defs><g id="a"/><g id="b"><g id="c"><g class="h"><path d="M270.68,199.6l-38.05-15.74c-2.5,1.29-5.66,2.05-9.15,2.05-3.99,0-7.56-1-10.18-2.64l-38.12,15.18c0,.14,.03,.27,.03,.41,0,2.45-1.33,4.66-3.55,6.35l14.62,13.66c1.29-.24,2.65-.37,4.08-.37,6.43,0,11.75,2.58,13.8,6.28h39.55c1.91-3.87,7.37-6.6,13.98-6.6,2.04,0,3.97,.26,5.72,.73l11.38-12.64c-2.53-1.71-4.08-4.05-4.12-6.66Z"/><path d="M307.3,179.67c.03-.42,.04-.85,.04-1.27,0-18.56-23.4-33.11-53.27-33.11-16.35,0-31.68,4.57-41.67,12.32-7.98-2.77-17.01-4.23-26.3-4.23-27.7,0-49.83,12.5-52.9,29.12-.19,0-.39,0-.58,0-27.26,0-48.62,13.35-48.62,30.38s21.36,30.38,48.62,30.38c5.56,0,10.99-.57,16.17-1.69,9.31,10.14,27.05,16.56,46.3,16.56,6.28,0,12.42-.66,18.28-1.96,8.13,2.92,17.41,4.46,26.92,4.46,19.13,0,36.39-6.11,45.87-16.08,2.81,.28,5.65,.41,8.49,.41,29.87,0,53.27-14.54,53.27-33.1,0-15.59-16.8-28.67-40.6-32.19Zm-21.91,29.49c-.36,0-.7-.02-1.05-.03l-13.23,14.69c.83,1.22,1.3,2.58,1.3,4.03,0,5.42-6.46,9.67-14.72,9.67-4.82,0-9.01-1.45-11.68-3.73h-43.61c-2.64,2.47-7,4.05-12.04,4.05-8.25,0-14.72-4.25-14.72-9.67,0-1.84,.76-3.54,2.07-4.99l-15.72-14.69c-.49,.03-.99,.05-1.49,.05-8.25,0-14.72-4.25-14.72-9.67s6.46-9.67,14.72-9.67c3.35,0,6.39,.71,8.84,1.9l39.5-15.73c.66-4.99,6.85-8.79,14.65-8.79,8.25,0,14.72,4.25,14.72,9.67,0,.06-.01,.12-.01,.18l37.74,15.62c2.54-1.38,5.82-2.21,9.45-2.21,8.25,0,14.72,4.25,14.72,9.67s-6.46,9.67-14.72,9.67Z"/></g></g><g id="d" class="g"><g class="g"><path class="f" d="M270.68,199.6l-38.05-15.74c-2.5,1.29-5.66,2.05-9.15,2.05-3.99,0-7.56-1-10.18-2.64l-38.12,15.18c0,.14,.03,.27,.03,.41,0,2.45-1.33,4.66-3.55,6.35l14.62,13.66c1.29-.24,2.65-.37,4.08-.37,6.43,0,11.75,2.58,13.8,6.28h39.55c1.91-3.87,7.37-6.6,13.98-6.6,2.04,0,3.97,.26,5.72,.73l11.38-12.64c-2.53-1.71-4.08-4.05-4.12-6.66Z"/><path class="f" d="M307.3,179.67c.03-.42,.04-.85,.04-1.27,0-18.56-23.4-33.11-53.27-33.11-16.35,0-31.68,4.57-41.67,12.32-7.98-2.77-17.01-4.23-26.3-4.23-27.7,0-49.83,12.5-52.9,29.12-.19,0-.39,0-.58,0-27.26,0-48.62,13.35-48.62,30.38s21.36,30.38,48.62,30.38c5.56,0,10.99-.57,16.17-1.69,9.31,10.14,27.05,16.56,46.3,16.56,6.28,0,12.42-.66,18.28-1.96,8.13,2.92,17.41,4.46,26.92,4.46,19.13,0,36.39-6.11,45.87-16.08,2.81,.28,5.65,.41,8.49,.41,29.87,0,53.27-14.54,53.27-33.1,0-15.59-16.8-28.67-40.6-32.19Zm-21.91,29.49c-.36,0-.7-.02-1.05-.03l-13.23,14.69c.83,1.22,1.3,2.58,1.3,4.03,0,5.42-6.46,9.67-14.72,9.67-4.82,0-9.01-1.45-11.68-3.73h-43.61c-2.64,2.47-7,4.05-12.04,4.05-8.25,0-14.72-4.25-14.72-9.67,0-1.84,.76-3.54,2.07-4.99l-15.72-14.69c-.49,.03-.99,.05-1.49,.05-8.25,0-14.72-4.25-14.72-9.67s6.46-9.67,14.72-9.67c3.35,0,6.39,.71,8.84,1.9l39.5-15.73c.66-4.99,6.85-8.79,14.65-8.79,8.25,0,14.72,4.25,14.72,9.67,0,.06-.01,.12-.01,.18l37.74,15.62c2.54-1.38,5.82-2.21,9.45-2.21,8.25,0,14.72,4.25,14.72,9.67s-6.46,9.67-14.72,9.67Z"/></g></g><g id="e"><path class="f" d="M218.03,62.09c.52-2.86,.81-5.81,.81-8.83,0-26.93-21.83-48.77-48.77-48.77-17.07,0-32.09,8.78-40.8,22.06-7.77-5.22-17.12-8.27-27.18-8.27-26.93,0-48.77,21.83-48.77,48.77,0,.38,.02,.75,.03,1.13-1.56-.17-3.14-.26-4.74-.26-24.37,0-44.12,19.75-44.12,44.12s19.75,44.12,44.12,44.12c6.35,0,12.38-1.35,17.83-3.77,7.56,17.14,24.69,29.12,44.63,29.12,6.58,0,12.85-1.31,18.58-3.67,7.66,5,16.8,7.92,26.62,7.92,19.43,0,36.2-11.36,44.04-27.81,3.33,.72,6.77,1.1,10.32,1.1,26.93,0,48.77-21.83,48.77-48.77,0-24.42-17.95-44.65-41.38-48.21Z"/><path d="M201.4,74.51c-4,0-7.63,1.61-10.28,4.21l-37.19-26.23c.19-.94,.29-1.91,.29-2.9,0-8.12-6.6-14.72-14.72-14.72s-14.72,6.6-14.72,14.72c0,.44,.03,.88,.07,1.32l-38.62,26.22c-2.6-2.29-5.99-3.7-9.72-3.7-8.12,0-14.72,6.6-14.72,14.72s6.6,14.72,14.72,14.72c.56,0,1.11-.04,1.65-.1l16.56,26.38c-1.91,2.48-3.07,5.58-3.07,8.96,0,8.12,6.6,14.72,14.72,14.72,5.82,0,10.85-3.4,13.23-8.32h41.13c2.48,4.62,7.37,7.77,12.97,7.77,8.12,0,14.72-6.6,14.72-14.72,0-2.69-.74-5.2-2-7.37l13.88-26.29c.36,.03,.72,.06,1.09,.06,8.12,0,14.72-6.6,14.72-14.72s-6.6-14.72-14.72-14.72Zm-21.9,49.52c-1.78-.76-3.73-1.19-5.79-1.19-7.42,0-13.55,5.52-14.56,12.66h-38.3c-1.23-6.88-7.25-12.12-14.47-12.12-1.48,0-2.9,.22-4.25,.63l-15.7-25.02c2.94-2.69,4.81-6.55,4.81-10.85,0-1.13-.14-2.22-.38-3.28l37.64-25.55c2.7,3.05,6.63,4.99,11.02,4.99,3.86,0,7.36-1.5,9.99-3.94l37.42,26.4c-.14,.8-.22,1.62-.22,2.46,0,4.51,2.04,8.55,5.25,11.25l-12.44,23.55Z"/><path d="M156.29,190.27c-9.58,0-18.89-2.55-27.09-7.41-5.8,2.1-11.88,3.17-18.11,3.17-19.65,0-37.6-10.83-46.85-27.92-5.02,1.71-10.25,2.57-15.62,2.57C21.81,160.68,0,138.87,0,112.06S21.81,63.43,48.62,63.43c.11,0,.22,0,.34,0,1.87-27.69,24.99-49.64,53.14-49.64,9.16,0,18.05,2.32,25.96,6.75C138.13,7.6,153.54,0,170.08,0c29.37,0,53.27,23.9,53.27,53.27,0,1.73-.09,3.48-.26,5.23,23.56,5.67,40.83,27.2,40.83,51.8,0,29.37-23.9,53.27-53.27,53.27-2.62,0-5.24-.2-7.85-.58-9.35,16.68-27.24,27.29-46.51,27.29Zm-26.15-17.48l1.99,1.3c7.2,4.7,15.55,7.18,24.16,7.18,16.98,0,32.67-9.91,39.98-25.25l1.53-3.21,3.48,.75c3.09,.67,6.24,1,9.37,1,24.41,0,44.27-19.86,44.27-44.27,0-21.69-16.15-40.5-37.55-43.76l-4.58-.7,.83-4.56c.49-2.68,.74-5.38,.74-8.02,0-24.41-19.86-44.27-44.27-44.27-14.96,0-28.81,7.49-37.04,20.03l-2.5,3.81-3.78-2.54c-7.3-4.91-15.83-7.51-24.67-7.51-24.41,0-44.27,19.86-44.27,44.27,0,.19,0,.38,.01,.56l.13,5.59-5.1-.55c-1.44-.15-2.87-.23-4.26-.23-21.85,0-39.62,17.77-39.62,39.62s17.77,39.62,39.62,39.62c5.56,0,10.95-1.14,16.01-3.38l4.12-1.82,1.82,4.12c7.08,16.06,22.98,26.43,40.51,26.43,5.83,0,11.5-1.12,16.86-3.33l2.19-.9Z"/></g></g></svg>